<svg class="area-map" viewBox="0 0 392 281" aria-hidden="true" xmlns="http://www.w3.org/2000/svg"><style>.m-water{fill:#eef3f8}.m-out{fill:#e6e8ee;stroke:#fff;stroke-width:1.2}.m-in{fill:#fbc9b6;stroke:#fff;stroke-width:1.4}.m-home path{fill:#f4511e}</style><rect width="392" height="281" class="m-water"/><path class="m-out" d="M45.6,169L40.8,169.3L43,183.1L2.7,186.4L0.7,193.2L4.8,198.4L4.2,198.9L0.8,198.2L-0.4,197.1L-27.5,191L-43.7,133.4L-44.5,133.2L-44.7,133.2L-45.6,133.4L-45.9,133.3L-46.3,133.1L-44.5,102.7L-43.2,81.3L-43.2,81.1L-38.8,6.7L8.8,7.6L9.1,7.6L24.4,8.3L24.7,8.3L50,9.3L68.3,9.9L79.3,10.1L79.3,10.3L74.1,34.1L109.3,32L104.6,48.9L94,87L77.3,89.7L77.4,90.5L78.3,96.5L78.3,97.2L78.4,97.3L81.8,118L85.6,142L80.4,145.7L76.1,146.2L76.8,150.4L72.5,150.1L67.1,152.9L45.6,169Z"/><path class="m-out" d="M43,183.1L40.8,169.3L45.6,169L67.1,152.9L72.5,150.1L76.8,150.4L76.1,146.2L80.4,145.7L85.6,142L94.7,169.4L142.6,162.1L144.4,188.9L144.8,193.7L147.1,192.9L144.1,213.4L153.4,211.4L159.8,209.9L160.7,209.9L195.5,268.7L193.3,270.4L193.2,270.4L187.4,264.7L187.3,264.6L184.3,263.4L183.8,263.6L183.6,263.6L183.4,263.7L183.1,263.7L182.7,263.9L182.4,264L180.6,264.4L178.2,263.9L177.6,263.7L175.9,263.3L175.8,263.4L175.7,263.4L172.4,264.3L170,265L169.9,265L169.6,265L167.6,265.3L166.9,265.4L166.8,265.3L166.6,265.2L164.8,264.3L164.6,264.3L163.6,264.6L162.5,264.9L162.3,265L161.8,265.5L159.2,268.1L159.1,269.7L159,270.2L158.1,271.4L157.9,271.6L157.8,271.7L157.1,272.1L156.8,272.3L156.6,272.3L155,272.3L153.9,272.4L153.7,272.4L153.3,272.4L153.2,272.4L152.9,272.4L152.8,272.3L152.1,270.9L152.7,270.3L152.4,269.2L149.9,267.6L147.4,269L142,265L141.3,265L134.2,265.7L126.2,269.9L126,269.3L124.2,268.4L119,268.4L118.4,268.8L117.5,271.3L115.7,272.2L110.7,273L107.2,272.7L105.9,272L105,271.5L104.8,271.2L105.4,269.7L105.4,269.6L107.4,268.6L107.4,268.5L107.6,267.3L107,266L105.3,262.4L104.1,259.9L104.1,259.7L102,260L101.9,260.1L101.2,260.7L101,263.5L101,263.7L101,264.4L98.2,266.9L97.9,267.3L97.3,267.8L92.1,269.6L91.4,269.9L91,270L90.8,270.1L85.4,275.4L85.1,275.8L64.7,253.8L62.8,252.3L62.3,251.6L62,250.3L60.1,249.3L59,247.7L52.9,243.5L47.9,237.2L45,231.8L41.6,226.4L38.7,226.5L36.2,223.8L35.1,222L35.8,219L30.2,214.3L4.8,198.4L0.7,193.2L2.7,186.4L43,183.1Z"/><path class="m-out" d="M303.7,36.6L303,13.5L313.5,14.1L377.4,15.3L377.8,20.4L378.3,46.7L378.5,54.6L379,75.5L379,75.9L379.3,86.2L379.3,86.8L380.1,113.9L380.1,114L380.2,141.9L339.3,143.6L312.9,137.9L302.7,135.5L302.1,135.5L298.5,134.7L290.4,133.4L289.3,136.1L282.1,129.9L269.5,117.8L269.1,117.4L289.6,104.4L289.5,104.3L287.6,77.6L274.5,77.5L274.7,36.9L290.8,36.5L297.5,36.6L297.7,36.6L303.7,36.6Z"/><path class="m-out" d="M-46.3,133.1L-45.9,133.3L-45.6,133.4L-44.7,133.2L-44.5,133.2L-43.7,133.4L-27.5,191L-0.4,197.1L0.8,198.2L4.2,198.9L4.8,198.4L30.2,214.3L35.8,219L35.1,222L36.2,223.8L38.7,226.5L41.6,226.4L45,231.8L47.9,237.2L52.9,243.5L59,247.7L60.1,249.3L62,250.3L62.3,251.6L62.8,252.3L64.7,253.8L85.1,275.8L84.8,276L81.9,279.6L80.5,282.1L79.6,283.7L78.1,285.3L78,285.4L77.7,285.7L76.5,285.7L76.5,285.6L76.4,285.6L76.4,285.5L76.4,285L75.9,284.7L75.3,284.6L70.2,283.9L68.9,283.7L67.9,284.3L66.8,284.9L62.3,288.7L61.8,289.1L58.9,292.3L58.7,292.5L58.7,292.6L55.7,296L55.4,296.3L54.8,297.4L54.2,300.4L54.3,301.3L54.7,302.4L54,303.3L49.3,304.7L40.9,300.8L39.5,300.1L39.3,298.7L37.6,298.1L31.4,300.9L25.1,306L23.4,305.6L20.2,311.4L16.7,314.3L10.7,310.9L8.3,311.6L4.5,314.7L-0.2,316.8L-10.4,318.8L-15.3,324.2L-17.3,324.6L-20.6,328.9L-25.9,334.4L-29.7,334.3L-34.1,336.2L-36.4,341.2L-40.3,337.2L-46.1,340.3L-46.1,343.4L-47.5,346.7L-49.1,347.7L-49.6,345.9L-49.4,343.6L-50,342.6L-50.7,342.6L-54.7,345.1L-57.2,347.6L-58.7,349.5L-59.2,352.6L-62.7,352.8L-62.9,349.6L-65.6,347.8L-67.6,348.1L-77.4,352.4L-79.3,354.7L-80.8,358L-80.1,349.2L-80.3,348.9L-84,343.2L-86.4,339.3L-88.1,336.4L-89.9,333.5L-98.2,319.9L-76.4,306.4L-74.6,305.3L-70.2,302.6L-45.6,287.6L-44.3,286.8L-37.7,282.9L-54.5,255.6L-53,232.2L-52.7,228.8L-51.2,209.9L-51.2,209.3L-51.1,207.5L-50.9,204.2L-50.8,203.6L-50.8,202.9L-50.8,202.7L-50.8,202.2L-50.4,196.1L-50.4,195.9L-50.4,195.7L-50.4,195.3L-50.4,195L-50.3,194.8L-49.4,179.1L-47.2,149.7L-46.3,133.1Z"/><path class="m-in" d="M142.6,162.1L94.7,169.4L85.6,142L81.8,118L78.4,97.3L78.3,97.2L78.3,96.5L77.4,90.5L77.3,89.7L94,87L104.6,48.9L109.3,32L74.1,34.1L79.3,10.3L79.3,10.1L115.1,10.7L127.4,11.1L126.7,23.9L137,22.4L139,22.1L139.1,20.6L141.1,16.2L141.3,16.2L141.7,11.2L152,11L156.5,11L202.6,11.7L202.6,12L204.9,28.3L205.1,30.4L206.6,40.4L204.1,40.7L201.5,41.1L201.5,41.9L200.5,66L213.7,107.1L226.9,154.5L225.2,158.2L213,160.4L193.9,141L172.6,144.1L173.3,141.8L151.9,153.7L147.7,156.5L142.4,157.6L142.6,162.1Z"/><path class="m-in" d="M303,13.5L303.7,36.6L297.7,36.6L297.5,36.6L290.8,36.5L274.7,36.9L274.5,77.5L287.6,77.6L289.5,104.3L289.6,104.4L269.1,117.4L226.9,154.5L213.7,107.1L200.5,66L201.5,41.9L201.5,41.1L204.1,40.7L206.6,40.4L205.1,30.4L204.9,28.3L202.6,12L202.6,11.7L230.1,12.1L279.1,12.9L294.7,13.1L303,13.5Z"/><path class="m-in" d="M248.5,182.1L252.8,209.1L221.2,213.2L243.9,260.7L242.2,261.5L242.3,264.1L232.8,266.7L229.8,261.3L228,261.2L216.7,261.1L211.6,264L208.4,263.7L204.9,265.4L203.2,267.3L200.2,266.9L199.6,265.5L197.6,265.8L196.6,266.4L195.8,268.6L195.5,268.7L160.7,209.9L159.8,209.9L153.4,211.4L144.1,213.4L147.1,192.9L144.8,193.7L144.4,188.9L142.6,162.1L142.4,157.6L147.7,156.5L151.9,153.7L173.3,141.8L172.6,144.1L193.9,141L213,160.4L221.9,180L248.5,182.1Z"/><path class="m-in" d="M289.3,136.1L290.4,133.4L298.5,134.7L302.1,135.5L302.7,135.5L312.9,137.9L339.3,143.6L380.2,141.9L380.2,156.1L378.1,215.5L378.1,215.6L373,214.6L367.8,217.1L367.1,217.8L366.8,219.2L367.2,222.6L369.3,226.2L369.8,230.7L369.9,239.4L369.5,240.5L367.7,242.7L362.9,246.7L360.7,243.9L356.3,242.1L348.8,243.5L347.4,242.7L347.1,242.5L343.9,241.6L341.6,241.6L338.9,244.2L335.4,246L333.3,244.2L332.6,244.2L331.1,247.3L322.8,248.5L307.4,247.6L304.9,249.4L303.6,251.8L300.6,254.4L295.1,254.3L288.3,250.7L285.3,248.3L284.4,246.7L282.8,246.2L281.1,246.4L278.5,248.9L278.1,249.7L277.9,254.4L275.7,256.9L272.6,254.4L270.1,254L267,254.3L266,254.6L266.4,256L266.2,257.4L263.7,259.7L249.8,261.4L247.4,261.2L245.8,259.7L243.9,260.7L221.2,213.2L252.8,209.1L248.5,182.1L221.9,180L213,160.4L225.2,158.2L226.9,154.5L269.1,117.4L269.5,117.8L282.1,129.9L289.3,136.1Z"/><g class="m-home" transform="translate(185.6,76.5)"><path d="M0,0 C-9,-12 -11,-16 -11,-21 A11,11 0 1 1 11,-21 C11,-16 9,-12 0,0Z"/><circle cy="-21" r="4.2" fill="#fff"/></g></svg>